<svg width="20" height="23" viewBox="0 0 20 23" fill="none" xmlns="http://www.w3.org/2000/svg">
<path fill-rule="evenodd" clip-rule="evenodd" d="M5.09898 1.68533C3.25007 1.68533 1.71674 3.18186 1.67325 5.02742V17.1056C1.64091 18.9422 3.09841 20.4499 4.92167 20.4811L5.0856 20.48H14.0202C15.8512 20.4599 17.3444 18.9467 17.3422 17.1067V7.07149L12.1746 1.68533H5.11236H5.09898ZM4.90627 22.1538C2.14851 22.1059 -0.0461002 19.8343 0.000735925 17.0911V5.00735C0.0642993 2.24067 2.34924 0.0126038 5.09584 0.0126038H5.11592H12.5305C12.758 0.0126038 12.9755 0.105161 13.1338 0.269088L18.7832 6.15595C18.9315 6.31095 19.0151 6.51949 19.0151 6.73471V17.1056C19.0196 19.8589 16.7826 22.1237 14.0293 22.1527L4.90627 22.1538Z" fill="#697586"/>
<path fill-rule="evenodd" clip-rule="evenodd" d="M18.1737 7.78819H15.1025C13.0607 7.78261 11.4014 6.11881 11.4014 4.08032V0.83636C11.4014 0.374689 11.7761 0 12.2377 0C12.6994 0 13.0741 0.374689 13.0741 0.83636V4.08032C13.0741 5.19993 13.9852 6.11212 15.1048 6.11547H18.1737C18.6353 6.11547 19.01 6.49016 19.01 6.95183C19.01 7.4135 18.6353 7.78819 18.1737 7.78819Z" fill="#697586"/>
<path fill-rule="evenodd" clip-rule="evenodd" d="M12.0363 13.0067H6.57318C6.11151 13.0067 5.73682 12.632 5.73682 12.1704C5.73682 11.7087 6.11151 11.334 6.57318 11.334H12.0363C12.498 11.334 12.8726 11.7087 12.8726 12.1704C12.8726 12.632 12.498 13.0067 12.0363 13.0067Z" fill="#697586"/>
<path fill-rule="evenodd" clip-rule="evenodd" d="M9.30511 15.7391C8.84344 15.7391 8.46875 15.3644 8.46875 14.9027V9.4385C8.46875 8.97683 8.84344 8.60214 9.30511 8.60214C9.76678 8.60214 10.1415 8.97683 10.1415 9.4385V14.9027C10.1415 15.3644 9.76678 15.7391 9.30511 15.7391Z" fill="#697586"/>
</svg>
