<svg width="175" height="12" viewBox="0 0 175 12" fill="none" xmlns="http://www.w3.org/2000/svg">
<path fill-rule="evenodd" clip-rule="evenodd" d="M0.519056 3.1095C1.03416 2.80275 1.05114 2.75212 0.817126 2.22168C0.363177 1.19229 0.468897 0.854595 1.32374 0.605591C2.30148 0.320962 3.90409 0.632781 4.83225 1.28848C5.18376 1.53673 5.9921 2.07861 6.62875 2.49243L7.78629 3.24507C28.1255 3.23986 150.879 3.25294 175 3.25294L175 3.7217L175 4.19046L28.557 4.19046L22.2222 4.19046L21.4154 5.77298C20.1363 8.28177 18.0132 10.2095 15.4511 11.1882C14.2419 11.6503 13.9874 11.6113 14.1437 10.9874C14.4223 9.87535 15.6811 7.72938 16.6918 6.64393C17.4673 5.81117 18.1714 4.88808 19.4156 4.19571L13.0122 4.19308L7.82006 4.19046L6.83865 4.79028C6.29866 5.1201 5.57442 5.6241 5.22928 5.91023C3.83426 7.066 0.736288 7.32531 0.586387 6.29873C0.552432 6.06604 0.661243 5.60948 0.828315 5.28397C0.995387 4.95847 1.10998 4.68021 1.08297 4.66578C-0.165436 3.9962 -0.3082 3.60244 0.519056 3.1095ZM4.90247 4.10758C4.24229 4.52796 2.88391 4.66203 2.03698 4.39034C0.62806 3.93827 0.728186 3.45638 2.31652 3.0435C3.02108 2.86031 3.37703 2.86312 4.08988 3.057C5.30279 3.38719 5.54414 3.69901 4.90247 4.10758ZM2.42996 2.30568C1.81859 2.43918 1.67139 2.40955 1.51261 2.12117C1.11114 1.39216 1.26972 1.19023 2.23974 1.19454C3.28558 1.19923 4.51971 1.68673 5.08536 2.31843L5.47121 2.74931L4.9889 2.61337C3.59021 2.21942 3.09651 2.16018 2.42996 2.30568ZM5.08536 5.12497C4.51971 5.75667 3.28558 6.24417 2.23974 6.24886C1.49178 6.25224 1.32451 6.19261 1.32914 5.92486C1.34226 5.19772 1.66136 4.9699 2.43189 5.13809C3.09632 5.28322 3.59136 5.2236 4.9889 4.83003L5.47121 4.69409L5.08536 5.12497ZM18.7586 8.40833C17.8355 9.29128 15.754 10.5655 15.2351 10.5655C14.9162 10.5655 14.9679 10.4013 15.7168 9.03702C16.0934 8.35095 16.7862 7.39919 17.2567 6.92218C18.0977 6.06905 19.7279 4.94047 20.1189 4.94047C20.2285 4.94047 19.5483 5.69235 18.607 6.61131C17.3111 7.87676 16.9278 8.36314 17.0273 8.61571C17.1358 8.89003 17.4815 8.6369 18.9838 7.18281C19.9875 6.21136 20.8086 5.48423 20.8086 5.5671C20.8086 5.95711 19.6667 7.53963 18.7586 8.40833Z" fill="#B0A6BD"/>
</svg>
