<svg width="175" height="12" viewBox="0 0 175 12" fill="none" xmlns="http://www.w3.org/2000/svg">
<path fill-rule="evenodd" clip-rule="evenodd" d="M174.481 3.1095C173.966 2.80275 173.949 2.75212 174.183 2.22168C174.637 1.19229 174.531 0.854595 173.676 0.605591C172.699 0.320962 171.096 0.632781 170.168 1.28848C169.816 1.53673 169.008 2.07861 168.371 2.49243L167.214 3.24507C146.875 3.23986 24.1209 3.25294 -1.20335e-07 3.25294L-1.40825e-07 3.7217L-1.61315e-07 4.19046L146.443 4.19046L152.778 4.19046L153.585 5.77298C154.864 8.28177 156.987 10.2095 159.549 11.1882C160.758 11.6503 161.013 11.6113 160.856 10.9874C160.578 9.87535 159.319 7.72938 158.308 6.64393C157.533 5.81117 156.829 4.88808 155.584 4.19571L161.988 4.19308L167.18 4.19046L168.161 4.79028C168.701 5.1201 169.426 5.6241 169.771 5.91023C171.166 7.066 174.264 7.32531 174.414 6.29873C174.448 6.06604 174.339 5.60948 174.172 5.28397C174.005 4.95847 173.89 4.68021 173.917 4.66578C175.165 3.9962 175.308 3.60244 174.481 3.1095ZM170.098 4.10758C170.758 4.52796 172.116 4.66203 172.963 4.39034C174.372 3.93827 174.272 3.45638 172.683 3.0435C171.979 2.86031 171.623 2.86312 170.91 3.057C169.697 3.38719 169.456 3.69901 170.098 4.10758ZM172.57 2.30568C173.181 2.43918 173.329 2.40955 173.487 2.12117C173.889 1.39216 173.73 1.19023 172.76 1.19454C171.714 1.19923 170.48 1.68673 169.915 2.31843L169.529 2.74931L170.011 2.61337C171.41 2.21942 171.903 2.16018 172.57 2.30568ZM169.915 5.12497C170.48 5.75667 171.714 6.24417 172.76 6.24886C173.508 6.25224 173.675 6.19261 173.671 5.92486C173.658 5.19772 173.339 4.9699 172.568 5.13809C171.904 5.28322 171.409 5.2236 170.011 4.83003L169.529 4.69409L169.915 5.12497ZM156.241 8.40833C157.165 9.29128 159.246 10.5655 159.765 10.5655C160.084 10.5655 160.032 10.4013 159.283 9.03702C158.907 8.35095 158.214 7.39919 157.743 6.92218C156.902 6.06905 155.272 4.94047 154.881 4.94047C154.771 4.94047 155.452 5.69235 156.393 6.61131C157.689 7.87676 158.072 8.36314 157.973 8.61571C157.864 8.89003 157.519 8.6369 156.016 7.18281C155.012 6.21136 154.191 5.48423 154.191 5.5671C154.191 5.95711 155.333 7.53963 156.241 8.40833Z" fill="#B0A6BD"/>
</svg>
