<svg width="20" height="18" viewBox="0 0 20 18" fill="none" xmlns="http://www.w3.org/2000/svg">
<path d="M7.76045 11.3668C7.18545 10.7928 6.83545 10.0128 6.83545 9.13783C6.83545 7.38483 8.24745 5.97183 9.99945 5.97183C10.8664 5.97183 11.6644 6.32283 12.2294 6.89683" stroke="#DFE1E3" stroke-width="1.5" stroke-linecap="round" stroke-linejoin="round"/>
<path d="M13.1049 9.69893C12.8729 10.9889 11.8569 12.0069 10.5679 12.2409" stroke="#DFE1E3" stroke-width="1.5" stroke-linecap="round" stroke-linejoin="round"/>
<path d="M4.65451 14.4723C3.06751 13.2263 1.72351 11.4063 0.749512 9.13734C1.73351 6.85834 3.08651 5.02834 4.68351 3.77234C6.27051 2.51634 8.10151 1.83434 9.99951 1.83434C11.9085 1.83434 13.7385 2.52634 15.3355 3.79134" stroke="#DFE1E3" stroke-width="1.5" stroke-linecap="round" stroke-linejoin="round"/>
<path d="M17.4473 5.99083C18.1353 6.90483 18.7403 7.95983 19.2493 9.13683C17.2823 13.6938 13.8063 16.4388 9.99929 16.4388C9.13629 16.4388 8.28529 16.2988 7.46729 16.0258" stroke="#DFE1E3" stroke-width="1.5" stroke-linecap="round" stroke-linejoin="round"/>
<path d="M17.8868 1.24963L2.11279 17.0236" stroke="#DFE1E3" stroke-width="1.5" stroke-linecap="round" stroke-linejoin="round"/>
</svg>
